<?xml version="1.0" encoding="UTF-8"?>
<svg id="uuid-752baa1f-4daa-4056-9191-18d10e2915ed" data-name="Capa 1" xmlns="http://www.w3.org/2000/svg" viewBox="0 0 298.39 348.06">
  <defs>
    <style>
      .uuid-59cb8e01-8129-40a7-a950-20c48791615d {
        fill: #be8f6d;
      }
    </style>
  </defs>
  <rect class="uuid-59cb8e01-8129-40a7-a950-20c48791615d" x="122.52" width="3.68" height="90.68"/>
  <rect class="uuid-59cb8e01-8129-40a7-a950-20c48791615d" x="122.52" y="257.39" width="3.68" height="90.68"/>
  <rect class="uuid-59cb8e01-8129-40a7-a950-20c48791615d" x="101.31" y="42.03" width="3.68" height="50.74" transform="translate(-11.17 21.42) rotate(-11.25)"/>
  <rect class="uuid-59cb8e01-8129-40a7-a950-20c48791615d" x="143.68" y="255.3" width="3.68" height="50.24" transform="translate(-51.91 33.78) rotate(-11.25)"/>
  <rect class="uuid-59cb8e01-8129-40a7-a950-20c48791615d" x="73.27" y="9.8" width="3.68" height="90.68" transform="translate(-15.38 32.94) rotate(-22.5)"/>
  <rect class="uuid-59cb8e01-8129-40a7-a950-20c48791615d" x="171.77" y="247.59" width="3.68" height="90.68" transform="translate(-98.88 88.74) rotate(-22.5)"/>
  <rect class="uuid-59cb8e01-8129-40a7-a950-20c48791615d" x="62.18" y="58.47" width="3.68" height="50.51" transform="translate(-35.73 49.68) rotate(-33.75)"/>
  <rect class="uuid-59cb8e01-8129-40a7-a950-20c48791615d" x="182.99" y="239.04" width="3.68" height="50.97" transform="translate(-115.82 147.27) rotate(-33.75)"/>
  <rect class="uuid-59cb8e01-8129-40a7-a950-20c48791615d" x="31.52" y="37.69" width="3.68" height="90.68" transform="translate(-48.94 47.91) rotate(-45)"/>
  <rect class="uuid-59cb8e01-8129-40a7-a950-20c48791615d" x="213.52" y="219.69" width="3.68" height="90.68" transform="translate(-124.33 229.91) rotate(-45)"/>
  <rect class="uuid-59cb8e01-8129-40a7-a950-20c48791615d" x="212.62" y="209.23" width="3.68" height="50.01" transform="translate(-99.45 282.41) rotate(-56.25)"/>
  <rect class="uuid-59cb8e01-8129-40a7-a950-20c48791615d" x="241.42" y="177.94" width="3.68" height="90.68" transform="translate(-56.12 362.58) rotate(-67.5)"/>
  <rect class="uuid-59cb8e01-8129-40a7-a950-20c48791615d" x="229.17" y="169.86" width="3.68" height="50.77" transform="translate(-5.55 383.73) rotate(-78.75)"/>
  <rect class="uuid-59cb8e01-8129-40a7-a950-20c48791615d" x="251.21" y="128.69" width="3.68" height="90.68" transform="translate(79.02 427.09) rotate(-90)"/>
  <rect class="uuid-59cb8e01-8129-40a7-a950-20c48791615d" x="228.99" y="127.66" width="3.68" height="50.4" transform="translate(125.94 409.07) rotate(-101.25)"/>
  <rect class="uuid-59cb8e01-8129-40a7-a950-20c48791615d" x="241.42" y="79.44" width="3.68" height="90.68" transform="translate(221.06 397.28) rotate(-112.5)"/>
  <rect class="uuid-59cb8e01-8129-40a7-a950-20c48791615d" x="212.75" y="88.58" width="3.68" height="50.33" transform="translate(239.24 355.36) rotate(-123.75)"/>
  <rect class="uuid-59cb8e01-8129-40a7-a950-20c48791615d" x="31.52" y="219.69" width="3.68" height="90.68" transform="translate(-130.46 476.03) rotate(-135)"/>
  <rect class="uuid-59cb8e01-8129-40a7-a950-20c48791615d" x="213.52" y="37.69" width="3.68" height="90.68" transform="translate(308.93 294.03) rotate(-135)"/>
  <rect class="uuid-59cb8e01-8129-40a7-a950-20c48791615d" x="62.11" y="239.06" width="3.68" height="50.75" transform="translate(-29.79 519.84) rotate(-146.25)"/>
  <rect class="uuid-59cb8e01-8129-40a7-a950-20c48791615d" x="182.95" y="58.17" width="3.68" height="50.84" transform="translate(292.01 255.75) rotate(-146.25)"/>
  <rect class="uuid-59cb8e01-8129-40a7-a950-20c48791615d" x="73.27" y="247.59" width="3.68" height="90.68" transform="translate(32.41 592.31) rotate(-157.5)"/>
  <rect class="uuid-59cb8e01-8129-40a7-a950-20c48791615d" x="171.77" y="9.8" width="3.68" height="90.68" transform="translate(312.9 172.51) rotate(-157.5)"/>
  <rect class="uuid-59cb8e01-8129-40a7-a950-20c48791615d" x="101.36" y="255.3" width="3.68" height="50.23" transform="translate(149.71 575.58) rotate(-168.75)"/>
  <rect class="uuid-59cb8e01-8129-40a7-a950-20c48791615d" x="143.72" y="42.15" width="3.68" height="50.61" transform="translate(275.16 162.02) rotate(-168.75)"/>
</svg>